<svg width="60" height="60" viewBox="0 0 60 60" fill="none" xmlns="http://www.w3.org/2000/svg">
<path d="M51.746 6H8.8254C8.36313 6 8 6.37709 8 6.85714V12.8571H33.5873C33.8019 12.8571 34.0165 12.9428 34.165 13.1142L37.2356 16.2857H52.5714V6.85714C52.5714 6.37709 52.2083 6 51.746 6ZM40.1905 12.8571C39.7282 12.8571 39.3651 12.4799 39.3651 12C39.3651 11.5199 39.7282 11.1429 40.1905 11.1429C40.6527 11.1429 41.0159 11.5199 41.0159 12C41.0159 12.4799 40.6527 12.8571 40.1905 12.8571ZM43.4921 12.8571C43.0298 12.8571 42.6667 12.4799 42.6667 12C42.6667 11.5199 43.0298 11.1429 43.4921 11.1429C43.9543 11.1429 44.3175 11.5199 44.3175 12C44.3175 12.4799 43.9543 12.8571 43.4921 12.8571ZM46.7937 12.8571C46.3314 12.8571 45.9683 12.4799 45.9683 12C45.9683 11.5199 46.3314 11.1429 46.7937 11.1429C47.2559 11.1429 47.619 11.5199 47.619 12C47.619 12.4799 47.2559 12.8571 46.7937 12.8571Z" fill="#BDE162"/>
<path d="M36.3112 17.1157L33.2406 14H8V45.1579C8 45.6294 8.36313 46 8.8254 46H18.4496L18.2184 45.9326C17.2609 45.68 16.5511 44.8715 16.4026 43.8779C16.2044 42.4968 16.2044 41.082 16.4026 39.6842C16.5511 38.7073 17.2609 37.899 18.1688 37.6631L18.7302 37.4948C18.8623 37.141 18.9942 36.821 19.1429 36.4842L18.8788 36.0126C18.4 35.1705 18.433 34.1095 19.0273 33.2337C19.8527 32.1221 20.8102 31.1453 21.9492 30.2694C22.3784 29.9663 22.8737 29.8148 23.3854 29.8148C23.8146 29.8148 24.2439 29.9326 24.5739 30.1179L25.1022 30.4211C25.4159 30.2694 25.7295 30.1347 26.0597 30.0169L26.2412 29.3431C26.5384 28.4505 27.3143 27.7768 28.2387 27.6252C28.9155 27.5242 29.5924 27.4737 30.2857 27.4737C30.979 27.4737 31.6559 27.5242 32.3492 27.6252C33.2902 27.7768 34.0825 28.4842 34.3302 29.4105L34.4952 30C34.8254 30.1347 35.1556 30.2694 35.4692 30.4211L35.9479 30.1515C36.3276 29.9326 36.7568 29.8148 37.186 29.8148C37.6978 29.8148 38.193 29.9663 38.6718 30.3031C39.7613 31.1453 40.7187 32.1221 41.5772 33.2842C42.1384 34.1095 42.1714 35.1705 41.7257 35.9621L41.4286 36.501C41.5772 36.821 41.7092 37.1579 41.8413 37.4948L42.4026 37.6631C43.327 37.9158 44.0203 38.7242 44.1688 39.7011C44.367 41.082 44.367 42.4968 44.1688 43.8947C44.0203 44.8547 43.327 45.6631 42.419 45.9158L42.1384 46H51.746C52.2083 46 52.5714 45.6294 52.5714 45.1579V17.3684H36.8889C36.6743 17.3684 36.4597 17.2842 36.3112 17.1157Z" fill="#BDE162"/>
<path d="M42.1538 43.2573C42.3298 42.0507 42.3298 40.8106 42.1538 39.6039C42.1058 39.2855 41.8819 39.0174 41.594 38.9336L40.2185 38.5146C39.9945 37.6933 39.6906 36.9057 39.2747 36.1347L39.9625 34.8276C40.1225 34.5427 40.0905 34.1907 39.9146 33.9225C39.2108 32.9506 38.379 32.0791 37.4513 31.3417C37.1955 31.1573 36.8595 31.1238 36.5877 31.2914L35.34 32.0121C34.6043 31.5763 33.8525 31.2579 33.0688 31.0232L32.669 29.582C32.589 29.2803 32.3331 29.0457 32.0292 28.9954C30.8776 28.811 29.694 28.811 28.5423 28.9954C28.2384 29.0457 27.9825 29.2803 27.8866 29.582L27.4867 31.0232C26.719 31.2579 25.9672 31.5763 25.2315 32.0121L23.9839 31.2914C23.712 31.1238 23.3761 31.1573 23.1202 31.3417C22.1925 32.0791 21.3607 32.9506 20.657 33.9225C20.4811 34.1907 20.449 34.5427 20.609 34.8276L21.2968 36.1347C20.8809 36.8889 20.577 37.6933 20.3531 38.5146L18.9936 38.9336C18.6897 39.0174 18.4657 39.2855 18.4178 39.6039C18.2418 40.8106 18.2418 42.0507 18.4178 43.2573C18.4657 43.5758 18.6897 43.844 18.9936 43.9278L20.3531 44.3467C20.577 45.1679 20.8809 45.9723 21.2968 46.7265L20.609 48.0337C20.449 48.3186 20.4811 48.6706 20.657 48.9387C21.3607 49.9108 22.1925 50.7822 23.1202 51.5196C23.3761 51.704 23.712 51.7374 23.9839 51.5699L25.2315 50.8493C25.9672 51.285 26.719 51.6034 27.4867 51.838L27.8866 53.2793C27.9825 53.581 28.2384 53.8156 28.5423 53.8659C29.1182 53.9496 29.71 54 30.2858 54C30.8616 54 31.4533 53.9496 32.0292 53.8659C32.3331 53.8156 32.589 53.581 32.669 53.2793L33.0688 51.838C33.8525 51.6034 34.6043 51.285 35.34 50.8493L36.5877 51.5699C36.8595 51.7374 37.1955 51.704 37.4513 51.5196C38.379 50.7822 39.2108 49.9108 39.9146 48.9387C40.0905 48.6706 40.1225 48.3186 39.9625 48.0337L39.2747 46.7265C39.6906 45.9556 39.9945 45.1679 40.2185 44.3467L41.594 43.9278C41.8819 43.844 42.1058 43.5758 42.1538 43.2573ZM30.2858 46.1734C27.7906 46.1734 25.7593 44.0451 25.7593 41.4307C25.7593 38.8163 27.7906 36.6878 30.2858 36.6878C32.7809 36.6878 34.8123 38.8163 34.8123 41.4307C34.8123 44.0451 32.7809 46.1734 30.2858 46.1734Z" fill="#BDE162"/>
<path d="M30.2857 38C28.7088 38 27.4286 39.5363 27.4286 41.4286C27.4286 43.3209 28.7088 44.8571 30.2857 44.8571C31.8626 44.8571 33.1429 43.3209 33.1429 41.4286C33.1429 39.5363 31.8626 38 30.2857 38Z" fill="#BDE162"/>
</svg>
