<svg width="60" height="60" viewBox="0 0 60 60" fill="none" xmlns="http://www.w3.org/2000/svg">
<path d="M50.9603 6H8.03963C7.57736 6 7.21423 6.37709 7.21423 6.85714V12.8571H32.8015C33.0161 12.8571 33.2308 12.9428 33.3793 13.1142L36.4498 16.2857H51.7857V6.85714C51.7857 6.37709 51.4225 6 50.9603 6ZM39.4047 12.8571C38.9424 12.8571 38.5793 12.4799 38.5793 12C38.5793 11.5199 38.9424 11.1429 39.4047 11.1429C39.867 11.1429 40.2301 11.5199 40.2301 12C40.2301 12.4799 39.867 12.8571 39.4047 12.8571ZM42.7063 12.8571C42.244 12.8571 41.8809 12.4799 41.8809 12C41.8809 11.5199 42.244 11.1429 42.7063 11.1429C43.1686 11.1429 43.5317 11.5199 43.5317 12C43.5317 12.4799 43.1686 12.8571 42.7063 12.8571ZM46.0079 12.8571C45.5456 12.8571 45.1825 12.4799 45.1825 12C45.1825 11.5199 45.5456 11.1429 46.0079 11.1429C46.4702 11.1429 46.8333 11.5199 46.8333 12C46.8333 12.4799 46.4702 12.8571 46.0079 12.8571Z" fill="#171D2F"/>
<path d="M35.5254 17.1157L32.4548 14H7.21423V45.1579C7.21423 45.6294 7.57736 46 8.03963 46H17.6638L17.4327 45.9326C16.4752 45.68 15.7653 44.8715 15.6168 43.8779C15.4186 42.4968 15.4186 41.082 15.6168 39.6842C15.7653 38.7073 16.4752 37.899 17.3831 37.6631L17.9444 37.4948C18.0765 37.141 18.2085 36.821 18.3571 36.4842L18.093 36.0126C17.6142 35.1705 17.6473 34.1095 18.2415 33.2337C19.0669 32.1221 20.0244 31.1453 21.1635 30.2694C21.5927 29.9663 22.0879 29.8148 22.5996 29.8148C23.0289 29.8148 23.4581 29.9326 23.7882 30.1179L24.3164 30.4211C24.6301 30.2694 24.9437 30.1347 25.2739 30.0169L25.4555 29.3431C25.7526 28.4505 26.5285 27.7768 27.453 27.6252C28.1298 27.5242 28.8066 27.4737 29.4999 27.4737C30.1933 27.4737 30.8701 27.5242 31.5634 27.6252C32.5044 27.7768 33.2968 28.4842 33.5444 29.4105L33.7095 30C34.0396 30.1347 34.3698 30.2694 34.6835 30.4211L35.1622 30.1515C35.5418 29.9326 35.971 29.8148 36.4003 29.8148C36.912 29.8148 37.4072 29.9663 37.886 30.3031C38.9755 31.1453 39.933 32.1221 40.7914 33.2842C41.3526 34.1095 41.3857 35.1705 40.9399 35.9621L40.6428 36.501C40.7914 36.821 40.9234 37.1579 41.0555 37.4948L41.6168 37.6631C42.5413 37.9158 43.2346 38.7242 43.3831 39.7011C43.5813 41.082 43.5813 42.4968 43.3831 43.8947C43.2346 44.8547 42.5413 45.6631 41.6332 45.9158L41.3526 46H50.9603C51.4225 46 51.7857 45.6294 51.7857 45.1579V17.3684H36.1031C35.8885 17.3684 35.6739 17.2842 35.5254 17.1157Z" fill="#171D2F"/>
<path d="M41.368 43.2573C41.544 42.0507 41.544 40.8106 41.368 39.6039C41.3201 39.2855 41.0961 39.0174 40.8082 38.9336L39.4327 38.5146C39.2088 37.6933 38.9049 36.9057 38.489 36.1347L39.1767 34.8276C39.3367 34.5427 39.3047 34.1907 39.1288 33.9225C38.425 32.9506 37.5933 32.0791 36.6656 31.3417C36.4097 31.1573 36.0738 31.1238 35.8019 31.2914L34.5543 32.0121C33.8186 31.5763 33.0668 31.2579 32.2831 31.0232L31.8832 29.582C31.8032 29.2803 31.5474 29.0457 31.2435 28.9954C30.0918 28.811 28.9082 28.811 27.7565 28.9954C27.4526 29.0457 27.1968 29.2803 27.1008 29.582L26.7009 31.0232C25.9332 31.2579 25.1814 31.5763 24.4457 32.0121L23.1981 31.2914C22.9262 31.1238 22.5903 31.1573 22.3344 31.3417C21.4067 32.0791 20.575 32.9506 19.8712 33.9225C19.6953 34.1907 19.6633 34.5427 19.8233 34.8276L20.511 36.1347C20.0951 36.8889 19.7912 37.6933 19.5673 38.5146L18.2078 38.9336C17.9039 39.0174 17.6799 39.2855 17.632 39.6039C17.456 40.8106 17.456 42.0507 17.632 43.2573C17.6799 43.5758 17.9039 43.844 18.2078 43.9278L19.5673 44.3467C19.7912 45.1679 20.0951 45.9723 20.511 46.7265L19.8233 48.0337C19.6633 48.3186 19.6953 48.6706 19.8712 48.9387C20.575 49.9108 21.4067 50.7822 22.3344 51.5196C22.5903 51.704 22.9262 51.7374 23.1981 51.5699L24.4457 50.8493C25.1814 51.285 25.9332 51.6034 26.7009 51.838L27.1008 53.2793C27.1968 53.581 27.4526 53.8156 27.7565 53.8659C28.3324 53.9496 28.9242 54 29.5 54C30.0758 54 30.6676 53.9496 31.2435 53.8659C31.5474 53.8156 31.8032 53.581 31.8832 53.2793L32.2831 51.838C33.0668 51.6034 33.8186 51.285 34.5543 50.8493L35.8019 51.5699C36.0738 51.7374 36.4097 51.704 36.6656 51.5196C37.5933 50.7822 38.425 49.9108 39.1288 48.9387C39.3047 48.6706 39.3367 48.3186 39.1767 48.0337L38.489 46.7265C38.9049 45.9556 39.2088 45.1679 39.4327 44.3467L40.8082 43.9278C41.0961 43.844 41.3201 43.5758 41.368 43.2573ZM29.5 46.1734C27.0048 46.1734 24.9735 44.0451 24.9735 41.4307C24.9735 38.8163 27.0048 36.6878 29.5 36.6878C31.9952 36.6878 34.0265 38.8163 34.0265 41.4307C34.0265 44.0451 31.9952 46.1734 29.5 46.1734Z" fill="#171D2F"/>
<path d="M29.5 38C27.9231 38 26.6428 39.5363 26.6428 41.4286C26.6428 43.3209 27.9231 44.8571 29.5 44.8571C31.0769 44.8571 32.3571 43.3209 32.3571 41.4286C32.3571 39.5363 31.0769 38 29.5 38Z" fill="#171D2F"/>
</svg>
